<mxfile host="app.diagrams.net" modified="2023-03-18T17:00:04.586Z" agent="5.0 (Windows NT 10.0; Win64; x64) AppleWebKit/537.36 (KHTML, like Gecko) Chrome/109.0.0.0 Safari/537.36 OPR/95.0.0.0" etag="I9XoV5lz1qILFqsyfv2Z" version="21.0.8" type="github">
  <diagram id="R2lEEEUBdFMjLlhIrx00" name="Page-1">
    <mxGraphModel dx="1139" dy="1715" grid="1" gridSize="10" guides="1" tooltips="1" connect="1" arrows="1" fold="1" page="1" pageScale="1" pageWidth="850" pageHeight="1100" math="0" shadow="0" extFonts="Permanent Marker^https://fonts.googleapis.com/css?family=Permanent+Marker">
      <root>
        <mxCell id="0" />
        <mxCell id="1" parent="0" />
        <mxCell id="C-vyLk0tnHw3VtMMgP7b-12" value="" style="edgeStyle=entityRelationEdgeStyle;endArrow=ERzeroToMany;startArrow=ERone;endFill=1;startFill=0;" parent="1" target="C-vyLk0tnHw3VtMMgP7b-17" edge="1">
          <mxGeometry width="100" height="100" relative="1" as="geometry">
            <mxPoint x="700" y="165" as="sourcePoint" />
            <mxPoint x="460" y="205" as="targetPoint" />
          </mxGeometry>
        </mxCell>
        <mxCell id="WrjjFMoc5xlWRAojU1_n-1" value="ESTADO" style="whiteSpace=wrap;html=1;align=center;" vertex="1" parent="1">
          <mxGeometry x="380" y="-30" width="100" height="40" as="geometry" />
        </mxCell>
        <mxCell id="WrjjFMoc5xlWRAojU1_n-7" style="edgeStyle=none;rounded=0;orthogonalLoop=1;jettySize=auto;html=1;exitX=1;exitY=1;exitDx=0;exitDy=0;entryX=0.25;entryY=0;entryDx=0;entryDy=0;" edge="1" parent="1" source="WrjjFMoc5xlWRAojU1_n-3" target="WrjjFMoc5xlWRAojU1_n-1">
          <mxGeometry relative="1" as="geometry" />
        </mxCell>
        <mxCell id="WrjjFMoc5xlWRAojU1_n-3" value="Nome" style="ellipse;whiteSpace=wrap;html=1;align=center;" vertex="1" parent="1">
          <mxGeometry x="280" y="-100" width="100" height="40" as="geometry" />
        </mxCell>
        <mxCell id="WrjjFMoc5xlWRAojU1_n-6" style="edgeStyle=none;rounded=0;orthogonalLoop=1;jettySize=auto;html=1;exitX=0;exitY=1;exitDx=0;exitDy=0;entryX=0.75;entryY=0;entryDx=0;entryDy=0;" edge="1" parent="1" source="WrjjFMoc5xlWRAojU1_n-4" target="WrjjFMoc5xlWRAojU1_n-1">
          <mxGeometry relative="1" as="geometry" />
        </mxCell>
        <mxCell id="WrjjFMoc5xlWRAojU1_n-4" value="Região" style="ellipse;whiteSpace=wrap;html=1;align=center;" vertex="1" parent="1">
          <mxGeometry x="480" y="-100" width="100" height="40" as="geometry" />
        </mxCell>
        <mxCell id="WrjjFMoc5xlWRAojU1_n-14" style="edgeStyle=none;rounded=0;orthogonalLoop=1;jettySize=auto;html=1;exitX=1;exitY=1;exitDx=0;exitDy=0;entryX=0;entryY=0;entryDx=0;entryDy=0;" edge="1" parent="1" source="WrjjFMoc5xlWRAojU1_n-9">
          <mxGeometry relative="1" as="geometry">
            <mxPoint x="920" y="-30" as="targetPoint" />
          </mxGeometry>
        </mxCell>
        <mxCell id="WrjjFMoc5xlWRAojU1_n-9" value="Nome" style="ellipse;whiteSpace=wrap;html=1;align=center;" vertex="1" parent="1">
          <mxGeometry x="740" y="-100" width="100" height="40" as="geometry" />
        </mxCell>
        <mxCell id="WrjjFMoc5xlWRAojU1_n-15" style="edgeStyle=none;rounded=0;orthogonalLoop=1;jettySize=auto;html=1;exitX=0.5;exitY=1;exitDx=0;exitDy=0;entryX=0.25;entryY=0;entryDx=0;entryDy=0;" edge="1" parent="1" source="WrjjFMoc5xlWRAojU1_n-11">
          <mxGeometry relative="1" as="geometry">
            <mxPoint x="945" y="-30" as="targetPoint" />
          </mxGeometry>
        </mxCell>
        <mxCell id="WrjjFMoc5xlWRAojU1_n-11" value="Estado" style="ellipse;whiteSpace=wrap;html=1;align=center;" vertex="1" parent="1">
          <mxGeometry x="860" y="-100" width="100" height="40" as="geometry" />
        </mxCell>
        <mxCell id="WrjjFMoc5xlWRAojU1_n-16" style="edgeStyle=none;rounded=0;orthogonalLoop=1;jettySize=auto;html=1;exitX=0.5;exitY=1;exitDx=0;exitDy=0;entryX=0.75;entryY=0;entryDx=0;entryDy=0;" edge="1" parent="1" source="WrjjFMoc5xlWRAojU1_n-12">
          <mxGeometry relative="1" as="geometry">
            <mxPoint x="995" y="-30" as="targetPoint" />
          </mxGeometry>
        </mxCell>
        <mxCell id="WrjjFMoc5xlWRAojU1_n-12" value="Data_inicio" style="ellipse;whiteSpace=wrap;html=1;align=center;" vertex="1" parent="1">
          <mxGeometry x="980" y="-100" width="100" height="40" as="geometry" />
        </mxCell>
        <mxCell id="WrjjFMoc5xlWRAojU1_n-17" style="edgeStyle=none;rounded=0;orthogonalLoop=1;jettySize=auto;html=1;exitX=0;exitY=1;exitDx=0;exitDy=0;entryX=1;entryY=0;entryDx=0;entryDy=0;" edge="1" parent="1" source="WrjjFMoc5xlWRAojU1_n-13">
          <mxGeometry relative="1" as="geometry">
            <mxPoint x="1020" y="-30" as="targetPoint" />
          </mxGeometry>
        </mxCell>
        <mxCell id="WrjjFMoc5xlWRAojU1_n-13" value="Partido" style="ellipse;whiteSpace=wrap;html=1;align=center;" vertex="1" parent="1">
          <mxGeometry x="1100" y="-100" width="100" height="40" as="geometry" />
        </mxCell>
        <mxCell id="WrjjFMoc5xlWRAojU1_n-18" value="PROJETO_LEI" style="whiteSpace=wrap;html=1;align=center;" vertex="1" parent="1">
          <mxGeometry x="810" y="240" width="100" height="40" as="geometry" />
        </mxCell>
        <mxCell id="WrjjFMoc5xlWRAojU1_n-25" style="edgeStyle=none;rounded=0;orthogonalLoop=1;jettySize=auto;html=1;exitX=1;exitY=0.5;exitDx=0;exitDy=0;entryX=0;entryY=1;entryDx=0;entryDy=0;" edge="1" parent="1" source="WrjjFMoc5xlWRAojU1_n-20" target="WrjjFMoc5xlWRAojU1_n-18">
          <mxGeometry relative="1" as="geometry" />
        </mxCell>
        <mxCell id="WrjjFMoc5xlWRAojU1_n-20" value="Nome_projeto" style="ellipse;whiteSpace=wrap;html=1;align=center;" vertex="1" parent="1">
          <mxGeometry x="645" y="330" width="100" height="40" as="geometry" />
        </mxCell>
        <mxCell id="WrjjFMoc5xlWRAojU1_n-26" style="edgeStyle=none;rounded=0;orthogonalLoop=1;jettySize=auto;html=1;exitX=1;exitY=0.5;exitDx=0;exitDy=0;entryX=0;entryY=0.75;entryDx=0;entryDy=0;" edge="1" parent="1" source="WrjjFMoc5xlWRAojU1_n-22" target="WrjjFMoc5xlWRAojU1_n-18">
          <mxGeometry relative="1" as="geometry" />
        </mxCell>
        <mxCell id="WrjjFMoc5xlWRAojU1_n-22" value="Data_votacao" style="ellipse;whiteSpace=wrap;html=1;align=center;" vertex="1" parent="1">
          <mxGeometry x="645" y="270" width="100" height="40" as="geometry" />
        </mxCell>
        <mxCell id="WrjjFMoc5xlWRAojU1_n-27" style="edgeStyle=none;rounded=0;orthogonalLoop=1;jettySize=auto;html=1;exitX=1;exitY=1;exitDx=0;exitDy=0;entryX=0;entryY=0.5;entryDx=0;entryDy=0;" edge="1" parent="1" source="WrjjFMoc5xlWRAojU1_n-23" target="WrjjFMoc5xlWRAojU1_n-18">
          <mxGeometry relative="1" as="geometry" />
        </mxCell>
        <mxCell id="WrjjFMoc5xlWRAojU1_n-23" value="Passou_ou_falhou" style="ellipse;whiteSpace=wrap;html=1;align=center;" vertex="1" parent="1">
          <mxGeometry x="630" y="210" width="130" height="40" as="geometry" />
        </mxCell>
        <mxCell id="WrjjFMoc5xlWRAojU1_n-28" style="edgeStyle=none;rounded=0;orthogonalLoop=1;jettySize=auto;html=1;exitX=1;exitY=0.5;exitDx=0;exitDy=0;entryX=0;entryY=0;entryDx=0;entryDy=0;" edge="1" parent="1" source="WrjjFMoc5xlWRAojU1_n-24" target="WrjjFMoc5xlWRAojU1_n-18">
          <mxGeometry relative="1" as="geometry" />
        </mxCell>
        <mxCell id="WrjjFMoc5xlWRAojU1_n-24" value="Proponente" style="ellipse;whiteSpace=wrap;html=1;align=center;" vertex="1" parent="1">
          <mxGeometry x="645" y="150" width="100" height="40" as="geometry" />
        </mxCell>
        <mxCell id="WrjjFMoc5xlWRAojU1_n-31" value="" style="endArrow=none;html=1;rounded=0;" edge="1" parent="1">
          <mxGeometry relative="1" as="geometry">
            <mxPoint x="760" y="-10" as="sourcePoint" />
            <mxPoint x="920" y="-10" as="targetPoint" />
          </mxGeometry>
        </mxCell>
        <mxCell id="WrjjFMoc5xlWRAojU1_n-32" value="N" style="resizable=0;html=1;whiteSpace=wrap;align=right;verticalAlign=bottom;" connectable="0" vertex="1" parent="WrjjFMoc5xlWRAojU1_n-31">
          <mxGeometry x="1" relative="1" as="geometry">
            <mxPoint x="-149" as="offset" />
          </mxGeometry>
        </mxCell>
        <mxCell id="WrjjFMoc5xlWRAojU1_n-33" value="" style="endArrow=none;html=1;rounded=0;exitX=1;exitY=0.5;exitDx=0;exitDy=0;entryX=0;entryY=0.5;entryDx=0;entryDy=0;" edge="1" parent="1" source="WrjjFMoc5xlWRAojU1_n-1">
          <mxGeometry relative="1" as="geometry">
            <mxPoint x="630" y="50" as="sourcePoint" />
            <mxPoint x="640" y="-10" as="targetPoint" />
          </mxGeometry>
        </mxCell>
        <mxCell id="WrjjFMoc5xlWRAojU1_n-34" value="1" style="resizable=0;html=1;whiteSpace=wrap;align=right;verticalAlign=bottom;" connectable="0" vertex="1" parent="WrjjFMoc5xlWRAojU1_n-33">
          <mxGeometry x="1" relative="1" as="geometry" />
        </mxCell>
        <mxCell id="WrjjFMoc5xlWRAojU1_n-42" value="Votou" style="shape=rhombus;perimeter=rhombusPerimeter;whiteSpace=wrap;html=1;align=center;" vertex="1" parent="1">
          <mxGeometry x="1020" y="90" width="120" height="60" as="geometry" />
        </mxCell>
        <mxCell id="WrjjFMoc5xlWRAojU1_n-43" value="Propôs" style="shape=rhombus;perimeter=rhombusPerimeter;whiteSpace=wrap;html=1;align=center;" vertex="1" parent="1">
          <mxGeometry x="800" y="90" width="120" height="60" as="geometry" />
        </mxCell>
        <mxCell id="WrjjFMoc5xlWRAojU1_n-46" value="Deputado" style="whiteSpace=wrap;html=1;align=center;" vertex="1" parent="1">
          <mxGeometry x="920" y="-30" width="100" height="40" as="geometry" />
        </mxCell>
        <mxCell id="WrjjFMoc5xlWRAojU1_n-47" value="Tem" style="shape=rhombus;perimeter=rhombusPerimeter;whiteSpace=wrap;html=1;align=center;" vertex="1" parent="1">
          <mxGeometry x="640" y="-40" width="120" height="60" as="geometry" />
        </mxCell>
        <mxCell id="WrjjFMoc5xlWRAojU1_n-52" value="" style="endArrow=none;html=1;rounded=0;fontFamily=Helvetica;fontSize=12;fontColor=default;exitX=0.5;exitY=1;exitDx=0;exitDy=0;entryX=0.5;entryY=0;entryDx=0;entryDy=0;" edge="1" parent="1" source="WrjjFMoc5xlWRAojU1_n-43" target="WrjjFMoc5xlWRAojU1_n-18">
          <mxGeometry relative="1" as="geometry">
            <mxPoint x="870" y="140" as="sourcePoint" />
            <mxPoint x="1030" y="140" as="targetPoint" />
          </mxGeometry>
        </mxCell>
        <mxCell id="WrjjFMoc5xlWRAojU1_n-53" value="N" style="resizable=0;html=1;whiteSpace=wrap;align=right;verticalAlign=bottom;strokeColor=default;fontFamily=Helvetica;fontSize=12;fontColor=default;fillColor=default;" connectable="0" vertex="1" parent="WrjjFMoc5xlWRAojU1_n-52">
          <mxGeometry x="1" relative="1" as="geometry">
            <mxPoint y="-69" as="offset" />
          </mxGeometry>
        </mxCell>
        <mxCell id="WrjjFMoc5xlWRAojU1_n-57" value="" style="endArrow=none;html=1;rounded=0;fontFamily=Helvetica;fontSize=12;fontColor=default;exitX=0;exitY=1;exitDx=0;exitDy=0;entryX=0.5;entryY=0;entryDx=0;entryDy=0;" edge="1" parent="1" source="WrjjFMoc5xlWRAojU1_n-46" target="WrjjFMoc5xlWRAojU1_n-43">
          <mxGeometry relative="1" as="geometry">
            <mxPoint x="870" y="140" as="sourcePoint" />
            <mxPoint x="1030" y="140" as="targetPoint" />
          </mxGeometry>
        </mxCell>
        <mxCell id="WrjjFMoc5xlWRAojU1_n-58" value="1" style="resizable=0;html=1;whiteSpace=wrap;align=right;verticalAlign=bottom;strokeColor=default;fontFamily=Helvetica;fontSize=12;fontColor=default;fillColor=default;" connectable="0" vertex="1" parent="WrjjFMoc5xlWRAojU1_n-57">
          <mxGeometry x="1" relative="1" as="geometry">
            <mxPoint y="-4" as="offset" />
          </mxGeometry>
        </mxCell>
        <mxCell id="WrjjFMoc5xlWRAojU1_n-59" value="" style="endArrow=none;html=1;rounded=0;fontFamily=Helvetica;fontSize=12;fontColor=default;exitX=1;exitY=0;exitDx=0;exitDy=0;entryX=0.5;entryY=1;entryDx=0;entryDy=0;" edge="1" parent="1" source="WrjjFMoc5xlWRAojU1_n-18" target="WrjjFMoc5xlWRAojU1_n-42">
          <mxGeometry relative="1" as="geometry">
            <mxPoint x="890" y="160" as="sourcePoint" />
            <mxPoint x="1050" y="160" as="targetPoint" />
          </mxGeometry>
        </mxCell>
        <mxCell id="WrjjFMoc5xlWRAojU1_n-60" value="N" style="resizable=0;html=1;whiteSpace=wrap;align=right;verticalAlign=bottom;strokeColor=default;fontFamily=Helvetica;fontSize=12;fontColor=default;fillColor=default;" connectable="0" vertex="1" parent="WrjjFMoc5xlWRAojU1_n-59">
          <mxGeometry x="1" relative="1" as="geometry">
            <mxPoint x="5" y="24" as="offset" />
          </mxGeometry>
        </mxCell>
        <mxCell id="WrjjFMoc5xlWRAojU1_n-61" value="" style="endArrow=none;html=1;rounded=0;fontFamily=Helvetica;fontSize=12;fontColor=default;exitX=1;exitY=1;exitDx=0;exitDy=0;entryX=0.5;entryY=0;entryDx=0;entryDy=0;" edge="1" parent="1" source="WrjjFMoc5xlWRAojU1_n-46" target="WrjjFMoc5xlWRAojU1_n-42">
          <mxGeometry relative="1" as="geometry">
            <mxPoint x="890" y="160" as="sourcePoint" />
            <mxPoint x="1050" y="160" as="targetPoint" />
          </mxGeometry>
        </mxCell>
        <mxCell id="WrjjFMoc5xlWRAojU1_n-62" value="1" style="resizable=0;html=1;whiteSpace=wrap;align=right;verticalAlign=bottom;strokeColor=default;fontFamily=Helvetica;fontSize=12;fontColor=default;fillColor=default;" connectable="0" vertex="1" parent="WrjjFMoc5xlWRAojU1_n-61">
          <mxGeometry x="1" relative="1" as="geometry">
            <mxPoint x="9" y="-6" as="offset" />
          </mxGeometry>
        </mxCell>
      </root>
    </mxGraphModel>
  </diagram>
</mxfile>
